<svg width="256" height="36" viewBox="0 0 256 36" fill="none" xmlns="http://www.w3.org/2000/svg">
<path d="M25.16 0.967998V6.248L12.248 15.272H24.44V35H20.12V19.592H4.76V35H0.44V1.4H4.76V15.272L25.16 0.967998Z" fill="#C93502"/>
<path d="M41.8734 0.919998C47.9214 0.919998 52.6734 5.576 52.6734 11.72C52.6734 19.016 46.1454 25.544 38.8494 25.544C36.6414 25.544 34.1934 24.872 32.3694 23.528V35H28.0494V14.696C28.4334 7.304 34.1934 0.919998 41.8734 0.919998ZM38.8494 21.224C43.8414 21.224 48.4014 16.952 48.4014 11.912C48.4014 8.168 46.0974 5.288 41.8734 5.288C36.9774 5.288 32.3694 9.56 32.3694 14.552C32.3694 18.248 34.7214 21.224 38.8494 21.224ZM70.0156 26.744L73.8556 28.76C71.5996 32.936 67.2796 35.528 63.0076 35.528C57.6316 35.528 53.5036 31.496 53.5036 25.976C53.5036 21.272 56.4796 17 60.6076 14.936L53.6956 5.912V1.4H73.6636V5.72H58.9276L65.1676 13.736L64.2076 18.2C60.8476 18.776 57.7756 22.472 57.7756 25.832C57.7756 29.048 59.8876 31.208 63.0076 31.208C65.8876 31.208 68.7196 29.288 70.0156 26.744ZM87.8008 31.112C95.5288 31.112 101.241 23.24 101.241 15.704C101.241 10.424 97.9768 5.192 92.1688 5.192C84.6328 5.192 78.7288 13.544 78.7288 20.648C78.7288 26.024 81.8968 31.112 87.8008 31.112ZM92.1688 0.919998C100.569 0.919998 105.513 7.64 105.513 15.56V35H101.241V28.28C97.8808 32.648 92.9368 35.48 87.8008 35.48C79.5448 35.48 74.4568 28.376 74.4568 20.6C74.4568 11.096 82.0888 0.919998 92.1688 0.919998ZM104.831 1.4H121.583V5.72H115.391V35H111.071V5.72H104.831V1.4ZM124.003 1.4H128.323V30.68L138.355 1.4H142.963L154.435 35H149.875L140.659 8.024L132.883 30.68L131.443 35H124.003V1.4ZM160.198 30.68H174.214V16.712H160.198V30.68ZM164.47 5.672C162.31 5.672 160.198 7.784 160.198 9.944C160.198 11.336 161.206 12.344 162.598 12.344C164.758 12.344 166.87 10.232 166.87 8.072C166.87 6.632 165.958 5.672 164.47 5.672ZM169.99 12.344H178.534V35H155.878V9.8C156.07 5.288 159.862 1.352 164.47 1.352C168.31 1.352 171.238 4.232 171.238 8.072C171.238 9.512 170.806 11.096 169.99 12.344ZM181.424 1.4H185.744V30.68L195.776 1.4H200.384L211.856 35H207.296L198.08 8.024L190.304 30.68L188.864 35H181.424V1.4ZM206.362 1.4H223.114V5.72H216.922V35H212.602V5.72H206.362V1.4ZM225.534 1.4H229.854V30.68L239.886 1.4H244.494L255.966 35H251.406L242.19 8.024L234.414 30.68L232.974 35H225.534V1.4Z" fill="#292929"/>
</svg>
